:version 1.10
:name ASF
:units
  mass 1
  length 1
  angle deg
:documentation
  ASF file generated by Kaydara
:root
  axis xyz
  order  tx ty tz rx ry rz
  position 0 0 0
  orientation 0 0 0
:bonedata
  begin
    id 1
    name LeftUpLegDummy
    direction 1 -2.30186e-007 -8.31532e-007
    length 2.93387
    axis 0 0 0 xyz
  end
  begin
    id 2
    name LeftUpLeg
    direction -1.82929e-007 -1 -1.48925e-009
    length 17.3336
    axis -3.48766 0.00143442 -0.000521554 xyz
    dof rx ry rz
  end
  begin
    id 3
    name LeftLeg
    direction -1.82929e-007 -1 -5.23717e-011
    length 14.9995
    axis 3.68178 -0.00654042 -0.000282425 xyz
    dof rx ry rz
  end
  begin
    id 4
    name LeftFoot
    direction 8.31532e-007 -4.54534e-011 1
    length 6.74421
    axis 1.87234e-006 4.66016e-005 -5.96866e-006 xyz
    dof rx ry rz
  end
  begin
    id 5
    name LeftToes
    direction 0.00818058 -0.00485161 0.999955
    length 3.85048
    axis 1.06247e-005 4.65869e-005 -5.96999e-006 xyz
    dof rx ry rz
  end
  begin
    id 6
    name SpineDummy
    direction -5.8607e-008 0.943407 -0.331637
    length 5.93572
    axis 0 0 0 xyz
  end
  begin
    id 7
    name Spine
    direction -1.04988e-007 0.999988 0.00495137
    length 10.1015
    axis -0.001389 0.000121417 6.61666e-006 xyz
    dof rx ry rz
  end
  begin
    id 8
    name Spine1
    direction 0 0 0
    length 0
    axis -0.001389 0.00012144 6.56766e-006 xyz
    dof rx ry rz
  end
  begin
    id 9
    name RightShoulderDummy
    direction -0.98348 0.17941 -0.0240696
    length 3.59882
    axis -0.001389 0.00012144 6.56766e-006 xyz
  end
  begin
    id 10
    name RightShoulder
    direction -0.978693 0.204882 0.0135597
    length 2.70001
    axis 0.215806 0.000203631 -0.00679732 xyz
    dof rx ry rz
  end
  begin
    id 11
    name RightArm
    direction -1 3.85509e-006 8.31394e-007
    length 10.2459
    axis -23.2009 -0.134239 -0.964098 xyz
    dof rx ry rz
  end
  begin
    id 12
    name RightForeArm
    direction -1 3.85569e-006 8.3129e-007
    length 8.16799
    axis -9.92322 0.0658061 0.17887 xyz
    dof rx ry rz
  end
  begin
    id 13
    name RightHand
    direction -0.992843 -0.0414604 0.112003
    length 5.28593
    axis -0.00960638 0.00330669 -0.185225 xyz
    dof rx ry rz
  end
  begin
    id 14
    name LeftShoulder1Dummy
    direction 0.983523 0.179172 -0.0240748
    length 3.59866
    axis -0.001389 0.00012144 6.56766e-006 xyz
  end
  begin
    id 15
    name LeftShoulder1
    direction 0.978627 0.205195 0.0135605
    length 2.70019
    axis -0.001389 0.00012144 6.57583e-006 xyz
    dof rx ry rz
  end
  begin
    id 16
    name LeftArm
    direction 1 3.51895e-006 -8.60188e-007
    length 10.2459
    axis -23.1894 0.134785 0.967513 xyz
    dof rx ry rz
  end
  begin
    id 17
    name LeftForeArm
    direction 1 3.51921e-006 -7.32029e-007
    length 8.16799
    axis -9.91835 -0.0656957 -0.177789 xyz
    dof rx ry rz
  end
  begin
    id 18
    name LeftHand
    direction 0.992938 -0.0411636 0.11126
    length 5.32135
    axis -0.00960237 -0.00340661 0.185177 xyz
    dof rx ry rz
  end
  begin
    id 19
    name HEadDummy
    direction 1.01974e-006 0.999861 -0.016675
    length 2.99946
    axis -0.001389 0.00012144 6.56766e-006 xyz
  end
  begin
    id 20
    name HEad
    direction -0.0222689 0.980941 0.193023
    length 5.12695
    axis -0.001389 0.00012144 6.56766e-006 xyz
    dof rx ry rz
  end
  begin
    id 21
    name RightUpLegDummy
    direction -1 2.30186e-007 8.31532e-007
    length 2.93387
    axis 0 0 0 xyz
  end
  begin
    id 22
    name RightUpLeg
    direction -1.82966e-007 -1 1.56832e-007
    length 17.3336
    axis -3.4909 -0.000906625 0.00028951 xyz
    dof rx ry rz
  end
  begin
    id 23
    name RightLeg
    direction -1.82786e-007 -1 -1.80317e-007
    length 14.9995
    axis 3.68513 0.0193739 -0.131021 xyz
    dof rx ry rz
  end
  begin
    id 24
    name RightFoot
    direction 8.31721e-007 -4.63324e-011 1
    length 6.74421
    axis 4.81691e-005 -0.120479 -0.188785 xyz
    dof rx ry rz
  end
  begin
    id 25
    name RightToes
    direction 0.00124746 -0.014064 0.9999
    length 3.85082
    axis 0.000481921 0.542163 -0.142575 xyz
    dof rx ry rz
  end
:hierarchy
  begin
    root LeftUpLegDummy SpineDummy RightUpLegDummy
    LeftUpLegDummy LeftUpLeg
    LeftUpLeg LeftLeg
    LeftLeg LeftFoot
    LeftFoot LeftToes
    SpineDummy Spine
    Spine Spine1
    Spine1 RightShoulderDummy LeftShoulder1Dummy HEadDummy
    RightShoulderDummy RightShoulder
    RightShoulder RightArm
    RightArm RightForeArm
    RightForeArm RightHand
    LeftShoulder1Dummy LeftShoulder1
    LeftShoulder1 LeftArm
    LeftArm LeftForeArm
    LeftForeArm LeftHand
    HEadDummy HEad
    RightUpLegDummy RightUpLeg
    RightUpLeg RightLeg
    RightLeg RightFoot
    RightFoot RightToes
  end

:SAMPLES-PER-SECOND 30
:FULLY-SPECIFIED
:DEGREES
230
root  37.6364 34.6221 49.5983 -172.768 12.8711 -178.907
LeftUpLeg  -9.25734 11.5652 -3.11957
LeftLeg  13.5025 10.8097 1.85791
LeftFoot  -5.15833 -0.0429801 -0.954136
LeftToes  -4.86937 2.48695e-006 -1.03773e-007
Spine  4.23457 -0.986933 -1.29015
Spine1  8.22704 -2.43042 -1.83479
RightShoulder  0.0101984 5.05669 6.35314
RightArm  -33.1307 -12.9965 76.7837
RightForeArm  26.2922 23.8888 4.47388
RightHand  0.294683 -5.68051 -5.65811
LeftShoulder1  0.10732 -0.716128 -9.94126
LeftArm  -18.0264 3.11292 -61.8809
LeftForeArm  31.294 -14.4491 -2.59742
LeftHand  0.190536 3.46723 5.90718
HEad  7.64162 18.5059 -2.13068
RightUpLeg  -27.7773 -14.6304 3.73644
RightLeg  18.5897 -1.60059 -0.426595
RightFoot  4.03335 0.0181782 -0.138671
RightToes  -32.9969 -0.16396 -0.271232
231
root  37.6916 34.5973 49.3821 -172.607 11.1539 -179.128
LeftUpLeg  -9.09012 11.221 -3.17357
LeftLeg  13.3425 9.55306 1.61671
LeftFoot  -5.3258 -0.0400668 -0.861461
LeftToes  -5.39128 2.48695e-006 -1.03773e-007
Spine  4.31067 -1.0947 -1.27664
Spine1  8.39501 -2.63644 -1.85066
RightShoulder  0.00930137 4.92649 6.37591
RightArm  -32.7602 -13.0377 76.7222
RightForeArm  26.0515 24.7129 4.64955
RightHand  0.296144 -5.64498 -5.69099
LeftShoulder1  0.107823 -0.814518 -9.92331
LeftArm  -18.5282 3.69287 -62.166
LeftForeArm  32.1898 -13.5295 -2.42505
LeftHand  0.208033 3.72554 6.00877
HEad  7.52435 17.7069 -1.88357
RightUpLeg  -29.6654 -15.2887 4.87685
RightLeg  17.9884 1.704 0.433989
RightFoot  3.98251 0.0097516 0.0970553
RightToes  -32.4644 -0.165692 -0.272823
232
root  37.7555 34.5661 49.1203 -172.421 9.38551 -179.462
LeftUpLeg  -8.9157 10.7719 -3.3093
LeftLeg  13.2788 8.32275 1.4005
LeftFoot  -5.53714 -0.0373388 -0.772125
LeftToes  -5.90119 2.48695e-006 -1.03773e-007
Spine  4.31921 -1.1611 -1.25818
Spine1  8.43073 -2.75141 -1.86485
RightShoulder  0.00869643 4.80285 6.46784
RightArm  -32.5738 -13.3689 76.6115
RightForeArm  25.7913 25.2408 4.76336
RightHand  0.298231 -5.57652 -5.72784
LeftShoulder1  0.106638 -0.848357 -9.94422
LeftArm  -18.86 4.45081 -62.5836
LeftForeArm  33.1368 -12.7293 -2.27603
LeftHand  0.224149 3.91945 6.16285
HEad  7.53515 16.8266 -1.55812
RightUpLeg  -30.9501 -15.1244 5.37452
RightLeg  16.933 3.3085 0.778623
RightFoot  3.64817 0.0058759 0.193008
RightToes  -32.2677 -0.16691 -0.273929
233
root  37.8223 34.5321 48.7964 -172.114 7.6611 -179.855
LeftUpLeg  -8.71674 10.3921 -3.49088
LeftLeg  13.1642 7.06697 1.1757
LeftFoot  -5.7767 -0.0341089 -0.67604
LeftToes  -6.65177 2.48695e-006 -1.03773e-007
Spine  4.24827 -1.1541 -1.21755
Spine1  8.31021 -2.70939 -1.84338
RightShoulder  0.0083801 4.73632 6.5035
RightArm  -32.7205 -13.8895 76.5534
RightForeArm  25.7959 25.2377 4.76269
RightHand  0.302073 -5.51739 -5.85216
LeftShoulder1  0.102053 -0.883641 -9.9493
LeftArm  -19.3143 5.42695 -63.1427
LeftForeArm  33.9064 -12.1295 -2.16489
LeftHand  0.214879 3.81704 6.06078
HEad  7.56893 15.8896 -1.28533
RightUpLeg  -31.6814 -14.7513 5.4981
RightLeg  15.391 3.65716 0.757917
RightFoot  3.66786 0.00571062 0.217639
RightToes  -32.0068 -0.167633 -0.274575
234
root  37.8849 34.4936 48.3961 -171.945 5.79596 179.764
LeftUpLeg  -8.27103 9.84381 -3.59155
LeftLeg  13.1429 5.82381 0.967227
LeftFoot  -6.14954 -0.0315226 -0.586837
LeftToes  -7.30768 2.48695e-006 -1.03773e-007
Spine  4.20695 -1.13656 -1.12711
Spine1  8.24833 -2.63568 -1.74222
RightShoulder  0.00845915 4.66863 6.53636
RightArm  -33.0978 -14.3675 76.4482
RightForeArm  25.9445 24.6088 4.62728
RightHand  0.299303 -5.60111 -5.73401
LeftShoulder1  0.0935938 -0.786936 -9.90201
LeftArm  -18.9832 6.52612 -63.8436
LeftForeArm  34.0892 -11.9717 -2.13574
LeftHand  0.217975 3.93466 5.95345
HEad  7.53763 14.8698 -1.04334
RightUpLeg  -31.6753 -15.0811 5.54113
RightLeg  13.5885 3.48201 0.608659
RightFoot  4.24826 0.00538172 0.239534
RightToes  -32.6045 -0.167877 -0.274783
235
root  37.9516 34.4326 47.9311 -171.702 3.95491 179.202
LeftUpLeg  -7.89205 9.3241 -3.83243
LeftLeg  13.3756 4.53826 0.772832
LeftFoot  -6.71133 -0.0288822 -0.492587
LeftToes  -8.09331 2.48695e-006 -1.03773e-007
Spine  4.05316 -1.08167 -1.06067
Spine1  7.96348 -2.48227 -1.6849
RightShoulder  0.00896865 4.71509 6.57802
RightArm  -33.7805 -15.1445 76.3324
RightForeArm  26.365 23.6922 4.43232
RightHand  0.299735 -5.62129 -5.72284
LeftShoulder1  0.0843728 -0.718396 -9.86264
LeftArm  -18.4186 7.9467 -64.5216
LeftForeArm  33.8553 -12.1129 -2.16187
LeftHand  0.220408 4.11923 5.74338
HEad  7.78969 13.7244 -0.737299
RightUpLeg  -31.2056 -15.6522 5.29188
RightLeg  11.8057 2.74103 0.392305
RightFoot  4.98196 0.00763532 0.217647
RightToes  -32.8251 -0.167662 -0.274575
236
root  38.0244 34.3451 47.3845 -171.48 2.25781 178.529
LeftUpLeg  -7.46382 8.95398 -4.10523
LeftLeg  13.929 3.19588 0.575815
LeftFoot  -7.55111 -0.0251933 -0.381773
LeftToes  -8.91063 2.48695e-006 -1.03773e-007
Spine  3.84819 -0.96705 -1.02532
Spine1  7.5748 -2.20772 -1.68148
RightShoulder  0.0100168 4.76245 6.6467
RightArm  -34.652 -16.0928 76.2151
RightForeArm  26.9227 22.5976 4.20317
RightHand  0.297682 -5.69343 -5.64796
LeftShoulder1  0.0737837 -0.533294 -9.86526
LeftArm  -17.4343 9.50084 -65.1032
LeftForeArm  33.3872 -12.4579 -2.22574
LeftHand  0.214829 4.18542 5.49494
HEad  8.20781 12.4611 -0.367444
RightUpLeg  -30.2241 -16.2684 4.75626
RightLeg  10.4382 2.0089 0.239252
RightFoot  5.67406 0.0109273 0.177534
RightToes  -33.2602 -0.167004 -0.273975
237
root  38.1016 34.2392 46.7664 -171.275 0.776001 177.85
LeftUpLeg  -7.00272 8.67814 -4.34007
LeftLeg  14.7862 2.0131 0.393307
LeftFoot  -8.56103 -0.0195142 -0.260725
LeftToes  -9.68039 2.48695e-006 -1.03773e-007
Spine  3.59799 -0.795517 -1.00121
Spine1  7.09035 -1.82593 -1.68739
RightShoulder  0.0116933 4.78022 6.77428
RightArm  -35.6329 -17.1007 76.0417
RightForeArm  27.4935 21.2282 3.92178
RightHand  0.297545 -5.75388 -5.64266
LeftShoulder1  0.0630262 -0.222911 -9.94171
LeftArm  -16.4323 11.1173 -65.5772
LeftForeArm  32.951 -12.8692 -2.30201
LeftHand  0.203355 4.12894 5.25798
HEad  8.63913 11.1916 -0.00989412
RightUpLeg  -28.9553 -17.0028 4.12422
RightLeg  9.73586 2.05008 0.218733
RightFoot  6.49868 0.00951337 0.209956
RightToes  -32.9149 -0.1645 -0.271706
238
root  38.199 34.142 46.104 -171.156 -0.547729 177.691
LeftUpLeg  -6.58884 8.38675 -3.98242
LeftLeg  16.1432 1.06942 0.234427
LeftFoot  -9.7655 -0.0121919 -0.142726
LeftToes  -10.5465 2.48695e-006 -1.03773e-007
Spine  3.35222 -0.588757 -0.797551
Spine1  6.60667 -1.39628 -1.32566
RightShoulder  0.0140044 4.90599 6.9244
RightArm  -37.1452 -17.9571 75.6725
RightForeArm  28.1492 19.3343 3.54142
RightHand  0.30033 -5.75133 -5.59708
LeftShoulder1  0.0533757 0.109469 -10.1744
LeftArm  -15.7994 12.7009 -66.0343
LeftForeArm  32.716 -13.2196 -2.36709
LeftHand  0.188163 3.99241 5.01588
HEad  8.90269 10.0725 0.216153
RightUpLeg  -27.4232 -17.8015 4.05722
RightLeg  8.2004 2.93111 0.23296
RightFoot  9.09427 -0.00443501 0.433281
RightToes  -27.9186 -0.129854 -0.237243
239
root  38.3163 34.0722 45.4282 -171.174 -1.76433 178.172
LeftUpLeg  -6.15218 7.65564 -2.97204
LeftLeg  17.7249 0.755033 0.186767
LeftFoot  -10.9623 -0.0105059 -0.109494
LeftToes  -11.0623 2.48695e-006 -1.03773e-007
Spine  3.16023 -0.403167 -0.350658
Spine1  6.22834 -1.02475 -0.486194
RightShoulder  0.0196467 4.97261 7.14437
RightArm  -38.3954 -18.5061 74.9121
RightForeArm  28.3332 17.3912 3.16082
RightHand  0.307524 -5.91632 -5.56956
LeftShoulder1  0.0420711 0.542616 -10.4491
LeftArm  -15.66 14.0664 -66.7539
LeftForeArm  32.7111 -13.3563 -2.39248
LeftHand  0.18558 3.95781 4.98838
HEad  9.01819 9.09308 0.302232
RightUpLeg  -25.4934 -16.4867 3.77537
RightLeg  6.53297 0.731308 0.0377382
RightFoot  13.5638 0.0296851 0.127926
RightToes  -25.485 -0.114098 -0.219394
240
root  38.4435 34.0461 44.7699 -171.386 -2.71002 179.236
LeftUpLeg  -5.67762 6.47708 -1.44769
LeftLeg  19.4514 1.12021 0.314027
LeftFoot  -12.0272 -0.0224034 -0.212676
LeftToes  -11.2269 2.48695e-006 -1.03773e-007
Spine  3.03333 -0.216911 0.310079
Spine1  5.9779 -0.669674 0.764798
RightShoulder  0.0340559 5.06569 7.46047
RightArm  -39.7842 -18.6481 73.7663
RightForeArm  28.5219 15.4862 2.79582
RightHand  0.311416 -5.97428 -5.5863
LeftShoulder1  0.0323512 0.805982 -10.5323
LeftArm  -16.5494 15.2384 -67.9534
LeftForeArm  33.0587 -13.0731 -2.33969
LeftHand  0.181826 3.81606 5.07469
HEad  9.06119 8.23032 0.516704
RightUpLeg  -24.7816 -16.0416 4.48258
RightLeg  7.97222 -0.461547 -0.0331761
RightFoot  12.8054 0.0596976 -0.154429
RightToes  -19.283 -0.0774977 -0.171032
